# xmcd
#
# Track frame offsets:
#	150
#	19509
#	41298
#	68104
#	81377
#	98083
#	112922
#	134654
#	158248
#	177302
#	216437
#
# Disc length: 3144 seconds
#
# Revision: 2
# Processed by: cddbd v1.5.1PL0 Copyright (c) Steve Scherf et al.
# Submitted via: EasyCDDAExtractor 8.1.4.1
#
DISCID=910c460b
DTITLE=Dave Matthews Band
DYEAR=1900
DGENRE=Blues
TTITLE0=Best Of What's Around
TTITLE1=Tripping Billies
TTITLE2=Jimi Thing
TTITLE3=Song That Jane Likes
TTITLE4=What Would You Say
TTITLE5=Typical Situation
TTITLE6=Satellite
TTITLE7=Rhyme and Reason
TTITLE8=Dancing Nancies
TTITLE9=Recently
TTITLE10=Ants Marching
EXTD=
EXTT0=
EXTT1=
EXTT2=
EXTT3=
EXTT4=
EXTT5=
EXTT6=
EXTT7=
EXTT8=
EXTT9=
EXTT10=
PLAYORDER=
